<svg width="48px" height="24px" viewBox="0 0 48 24" fill="none" xmlns="http://www.w3.org/2000/svg">
  <!-- Arrow, scaled down and positioned on the left -->
  <path d="M2.7 11.2l3.08-3.08L12.05 12l-6.27 6.27-3.08-3.08L8.55 12z" fill="#000000"/>
  <!-- Bin, scaled down and positioned on the right -->
  <path d="M20 5.5v3" stroke="#000000" stroke-width="1" stroke-linecap="round" stroke-linejoin="round"/>
  <path d="M28 5.5v3" stroke="#000000" stroke-width="1" stroke-linecap="round" stroke-linejoin="round"/>
  <path d="M16 3.5h16" stroke="#000000" stroke-width="1" stroke-linecap="round" stroke-linejoin="round"/>
  <path d="M18 3.5h6h6v11c0 1.657-1.343 3-3 3h-6c-1.657 0-3-1.343-3-3v-11z" stroke="#000000" stroke-width="1" stroke-linecap="round" stroke-linejoin="round"/>
  <path d="M21 2.5c0-.605.495-1.1 1.1-1.1h2.8c.605 0 1.1.495 1.1 1.1v1.5h-5v-1.5z" stroke="#000000" stroke-width="1" stroke-linecap="round" stroke-linejoin="round"/>
</svg>